# xmcd CD database file generated by OrangeCD 6.5
#
# Track frame offsets:
#	150
#	14071
#	27034
#	44930
#	62179
#
# Disc length: 1247 seconds
#
# Revision: 0
# Processed by: cddbd v1.5.2PL0 Copyright (c) Steve Scherf et al.
# Submitted via: OrangeCD 6.5
#
DISCID=4504dd05
DTITLE=Rhiannon Giddens - Factory Girl
DYEAR=2017
DGENRE=Country Blues
TTITLE0=That Lonesome Road
TTITLE1=Mouth Music
TTITLE2=Moonshiner's Daughter
TTITLE3=Underneath The Harlem Moon
TTITLE4=Factory Girl
EXTD=
EXTT0=
EXTT1=
EXTT2=
EXTT3=
EXTT4=
PLAYORDER=
